<?xml version="1.0" encoding="UTF-8"?>
<svg version="1.1" xmlns="http://www.w3.org/2000/svg" width="2596" height="2008">
<path d="M0 0 C33.66 0 67.32 0 102 0 C105.96 8.085 109.92 16.17 114 24.5 C121.59010856 39.98652529 129.19160396 55.46566068 136.9375 70.875 C141.54209688 80.03558574 146.04921429 89.23321034 150.42944336 98.50341797 C155.30016538 108.74469788 160.41379202 118.86457224 165.5 129 C171.33136346 140.62042962 177.13808745 152.24176839 182.6796875 164.00390625 C187.45896967 174.08195779 192.49762136 184.03149184 197.5 194 C203.33134697 205.6204378 209.13808728 217.24176804 214.6796875 229.00390625 C219.45896967 239.08195779 224.49762136 249.03149184 229.5 259 C235.33134697 270.6204378 241.13808728 282.24176804 246.6796875 294.00390625 C251.45896967 304.08195779 256.49762136 314.03149184 261.5 324 C267.33134697 335.6204378 273.13808728 347.24176804 278.6796875 359.00390625 C283.45896967 369.08195779 288.49762136 379.03149184 293.5 389 C299.32542473 400.60863624 305.1300683 412.2166493 310.66210938 423.96875 C316.50245238 436.29123194 322.69910197 448.44341108 328.83007812 460.62304688 C329.27935669 461.51737427 329.72863525 462.41170166 330.19152832 463.33312988 C331.03894458 465.0198195 331.88803996 466.70566698 332.73913574 468.39050293 C333.3168573 469.54105164 333.3168573 469.54105164 333.90625 470.71484375 C334.40608398 471.70665649 334.40608398 471.70665649 334.91601562 472.71850586 C336.36656605 475.77152246 337.66851741 478.89320728 339 482 C339.495 323.6 339.495 323.6 340 162 C300.73 162 261.46 162 221 162 C215.00070732 150.00141465 209.06373385 138.07679074 203.31567383 125.97314453 C199.3238607 117.59136395 195.16794385 109.29503862 191 101 C185.96650458 90.98216925 181.01852939 80.93517984 176.22265625 70.80078125 C172.2651105 62.47466869 168.13830454 54.23719207 164 46 C159.15264028 36.34845497 154.34582701 26.68228559 149.6875 16.9375 C149.24986328 16.02291016 148.81222656 15.10832031 148.36132812 14.16601562 C146.13211452 9.47648971 144.04844012 4.77969362 142 0 C338.68 0 535.36 0 738 0 C738.3125 168.125 738.3125 168.125 738.38793945 221.21142578 C738.42450361 236.9145405 738.42450361 236.9145405 738.4650116 252.61764526 C738.48294868 259.61203861 738.4928004 266.60638578 738.49711609 273.60079956 C738.50212509 281.6734102 738.51749498 289.74592307 738.54548384 297.81848793 C738.55947005 301.94516454 738.56892323 306.07170468 738.56503928 310.19840646 C738.56160883 313.93809703 738.57211596 317.67749178 738.59324265 321.41712189 C738.60091719 323.39314367 738.59410094 325.36920582 738.58658123 327.3452282 C738.75910594 349.33940171 746.2347522 368.68552374 761.1875 384.75 C769.94897342 393.05355669 780.6310562 399.0770221 792 403 C792.85980469 403.31839844 793.71960937 403.63679688 794.60546875 403.96484375 C813.89930647 410.00634849 834.87487077 406.15325385 852.42773438 397.13256836 C857.75206448 394.26830522 862.51484947 391.07502976 867 387 C867.74507812 386.34644531 868.49015625 385.69289063 869.2578125 385.01953125 C882.47913894 372.71697496 890.81636765 354.55352172 892.27827013 336.57848966 C892.39081253 332.89225446 892.41263927 329.21690141 892.39872742 325.52897644 C892.40418002 324.11531917 892.41093699 322.70166644 892.41886932 321.28802091 C892.4367493 317.44080315 892.43635562 313.59377983 892.43273985 309.74653041 C892.43211234 305.58377135 892.44877014 301.42107549 892.46325684 297.25834656 C892.48598072 290.05852467 892.49791719 282.85875097 892.50238609 275.65889549 C892.50886307 265.24931224 892.53182759 254.83981586 892.55872939 244.43026773 C892.601939 227.53872914 892.63193898 210.64719423 892.65356445 193.75561523 C892.67459163 177.35357863 892.70191587 160.95157219 892.73754883 144.54956055 C892.73976234 143.52709348 892.74197585 142.50462642 892.74425644 141.45117551 C892.76161822 133.45401082 892.77934353 125.45684694 892.79718363 117.4596833 C892.88443381 78.30647427 892.93999656 39.15327858 893 0 C946.79 0 1000.58 0 1056 0 C1056.12099405 89.6655515 1056.12099405 89.6655515 1056.14648438 127.20117188 C1056.15235728 135.79158546 1056.15841852 144.38199888 1056.16479492 152.97241211 C1056.16598179 154.58723607 1056.16598179 154.58723607 1056.16719264 156.23468274 C1056.18021206 173.57555045 1056.20384768 190.91638806 1056.23145839 208.25723798 C1056.25959253 226.07651271 1056.27619313 243.89577178 1056.28226548 261.7150678 C1056.28636537 272.69520742 1056.29927653 283.675262 1056.3237494 294.65537541 C1056.33970566 302.20251387 1056.34437819 309.74960888 1056.34050413 317.29676295 C1056.33859784 321.63981694 1056.34135206 325.98272318 1056.35761642 330.32575035 C1056.43771007 352.83082486 1055.80495514 374.87323801 1050.1875 396.8125 C1049.92888184 397.84963135 1049.67026367 398.8867627 1049.40380859 399.95532227 C1041.91072839 429.34444453 1029.16780902 457.63817843 1011 482 C1010.55156738 482.60392578 1010.10313477 483.20785156 1009.64111328 483.83007812 C1002.97139552 492.73584458 995.7005121 500.97769779 988 509 C987.51418457 509.51304687 987.02836914 510.02609375 986.52783203 510.5546875 C979.47233979 517.9849954 971.99717776 524.50337855 963.79882812 530.64550781 C962.02307817 531.98262246 960.26879577 533.34440877 958.515625 534.7109375 C910.62560622 571.52098639 846.94210983 586.74310135 787.34375 579.75390625 C756.93627573 575.70223567 728.03404395 566.46224313 701 552 C699.84371094 551.38640625 698.68742187 550.7728125 697.49609375 550.140625 C682.82640931 542.06311957 669.49464668 532.11172838 657 521 C656.50193848 520.56365234 656.00387695 520.12730469 655.49072266 519.67773438 C635.8792289 502.46907882 620.31219984 482.3848456 607 460 C606.43804932 459.06220703 606.43804932 459.06220703 605.86474609 458.10546875 C593.14987229 436.57789265 585.31831238 411.92642742 580.25 387.5625 C580.05108154 386.62341797 579.85216309 385.68433594 579.6472168 384.71679688 C576.36289798 367.97818359 575.70002503 350.99976251 575.77294922 333.9909668 C575.77351548 332.09626776 575.7731926 330.20156829 575.77206421 328.30686951 C575.77149806 323.23798686 575.78313062 318.16920182 575.79721212 313.10034156 C575.80984467 307.77529907 575.81089973 302.45025353 575.81326294 297.12519836 C575.81944134 287.07482498 575.83580208 277.0244959 575.85596192 266.9741419 C575.87843526 255.51801453 575.8893429 244.06188488 575.89935279 232.6057409 C575.92017218 209.07046383 575.95680204 185.53524737 576 162 C551.91 162 527.82 162 503 162 C503 300.27 503 438.54 503 581 C404.99 581 306.98 581 206 581 C181 531 181 531 170 508 C168.35 504.7 166.7 501.4 165 498 C165 497.34 165 496.68 165 496 C103.62 496 42.24 496 -21 496 C-20.07819523 491.39097616 -18.8951899 488.45443585 -16.7890625 484.3203125 C-16.46541718 483.68000092 -16.14177185 483.03968933 -15.80831909 482.37997437 C-15.11377301 481.00698923 -14.41659765 479.63533155 -13.71704102 478.26489258 C-11.86384603 474.63349216 -10.03041831 470.99212831 -8.1953125 467.3515625 C-7.82952087 466.62700867 -7.46372925 465.90245483 -7.08685303 465.15594482 C-4.14083786 459.30961619 -1.29441036 453.42032408 1.5 447.5 C6.2024417 437.56021611 11.11479686 427.73251066 16.05126953 417.90771484 C20.72955053 408.59263085 25.31090156 399.24154296 29.76855469 389.81835938 C34.44466161 379.97796137 39.34652715 370.25096998 44.25585938 360.52539062 C48.67336846 351.75692108 52.88394911 342.91455581 57 334 C70.365 333.505 70.365 333.505 84 333 C80.73428865 326.33729242 77.46846312 319.6746426 74.20163727 313.01248169 C72.67963264 309.90852521 71.1578126 306.80447859 69.63647461 303.70019531 C60.38921811 284.81491499 60.38921811 284.81491499 51 266 C44.83375364 277.40897657 39.02929199 288.96387217 33.42776489 300.65982056 C28.81853649 310.28108349 24.10601368 319.84427 19.3125 329.375 C14.50034988 338.94658068 9.78826604 348.55721137 5.20239258 358.23974609 C1.41015333 366.21481756 -2.53438612 374.11031642 -6.5 382 C-10.89887785 390.75170706 -15.24630884 399.52126792 -19.4375 408.375 C-23.82879833 417.64995435 -28.39301647 426.83101177 -33 436 C-37.58607519 445.12740689 -42.1303571 454.26628978 -46.5 463.5 C-51.20354148 473.43928795 -56.11478087 483.26745751 -61.05126953 493.09228516 C-65.73102433 502.4103037 -70.31321719 511.76460556 -74.77294922 521.19042969 C-79.39193471 530.90936606 -84.23027069 540.51775764 -89.08007812 550.12304688 C-94.22562248 560.34636246 -99.09572129 570.64652273 -104 581 C-164.06 581 -224.12 581 -286 581 C-273.96085884 555.58403534 -261.72566688 530.31229035 -249.0793457 505.19555664 C-244.48413838 496.05598259 -239.96547491 486.88792351 -235.57421875 477.6484375 C-229.40080898 464.6621013 -222.94455583 451.82242209 -216.47949219 438.97949219 C-210.56963387 427.23198603 -204.75215085 415.45158604 -199.10803223 403.57397461 C-193.59677851 392.00414541 -187.8158382 380.57054143 -182.05224609 369.125 C-176.77012701 358.62850417 -171.54431672 348.11316307 -166.5 337.5 C-160.53444825 324.9485729 -154.30228752 312.53654937 -148.05224609 300.125 C-142.77012701 289.62850417 -137.54431672 279.11316307 -132.5 268.5 C-126.53444825 255.9485729 -120.30228752 243.53654937 -114.05224609 231.125 C-108.78058917 220.64929431 -103.56471924 210.15504701 -98.53125 199.5625 C-92.37303642 186.60439703 -85.93015676 173.79381814 -79.47949219 160.97949219 C-73.56963387 149.23198603 -67.75215085 137.45158604 -62.10803223 125.57397461 C-56.59677851 114.00414541 -50.8158382 102.57054143 -45.05224609 91.125 C-39.79552898 80.67898233 -34.59326274 70.21494637 -29.57421875 59.65234375 C-23.65788303 47.20280098 -17.49615137 34.88096967 -11.3125 22.5625 C-7.579375 15.116875 -3.84625 7.67125 0 0 Z " fill="#FECD07" transform="translate(922,442)"/>
<path d="M0 0 C174.57 0 349.14 0 529 0 C529.25 156.9375 529.25 156.9375 529.29785156 206.46069336 C529.33107817 221.1312399 529.33107817 221.1312399 529.36956787 235.80177307 C529.38654846 242.32771951 529.39276213 248.85356581 529.39154053 255.37953186 C529.39016728 262.9164775 529.40272331 270.45325091 529.43203889 277.9901419 C529.44658863 281.84074226 529.45518111 285.69107554 529.44582415 289.54169834 C529.37023593 311.57396161 529.37023593 311.57396161 534 333 C534.33554484 334.03984238 534.33554484 334.03984238 534.67786837 335.10069168 C543.43891609 362.02531588 561.0686199 381.79560239 586 395 C586.69351563 395.39832031 587.38703125 395.79664063 588.1015625 396.20703125 C592.48847294 398.63239363 597.18006827 400.15367424 601.9375 401.6875 C602.59411621 401.90237061 603.25073242 402.11724121 603.92724609 402.33862305 C613.37324552 405.25882633 622.93061895 405.20785673 632.75 405.25 C633.9359375 405.270625 635.121875 405.29125 636.34375 405.3125 C660.59456531 405.41839876 683.92175423 394.79926011 702 379 C704.13249226 376.74277706 706.05245785 374.42126861 708 372 C708.66 372 709.32 372 710 372 C710.26554687 371.42765625 710.53109375 370.8553125 710.8046875 370.265625 C712.05756105 367.89089735 713.51225109 365.89533111 715.125 363.75 C727.93747125 345.57230642 734.31427648 324.8411424 734.2784729 302.68061829 C734.2842653 301.38081707 734.2900577 300.08101585 734.29602563 298.74182671 C734.31171024 295.1637661 734.31524989 291.58578424 734.31667423 288.00769341 C734.32038862 284.13802587 734.33555411 280.26840053 734.34928894 276.39875793 C734.37150189 269.70419577 734.38655094 263.00964873 734.39665604 256.31505775 C734.41127656 246.63595339 734.43682276 236.95690178 734.46498732 227.27782848 C734.51039416 211.57203312 734.54703415 195.86623014 734.578125 180.16040039 C734.6083356 164.90875919 734.64269738 149.65713659 734.68261719 134.40551758 C734.68507874 133.46451693 734.68754028 132.52351629 734.69007643 131.55400047 C734.70245152 126.83301076 734.71490795 122.11202126 734.72740483 117.39103186 C734.83088113 78.26070994 734.91849288 39.13037506 735 0 C771.96 0 808.92 0 847 0 C847.04412961 42.14988537 847.08104306 84.29974886 847.10213066 126.44965073 C847.10463193 131.43111485 847.10722059 136.41257892 847.10986328 141.39404297 C847.11065021 142.8815596 847.11065021 142.8815596 847.11145304 144.39912707 C847.12014456 160.43501107 847.13590762 176.47088066 847.15430559 192.50675613 C847.17303954 208.97337319 847.18412411 225.43998273 847.18817699 241.90661001 C847.19091481 252.05913055 847.19954738 262.21161035 847.21583293 272.36411834 C847.22644299 279.33558952 847.22959156 286.30703978 847.22700275 293.27851844 C847.2257277 297.29460693 847.22761743 301.31062448 847.23841095 305.32670021 C847.24824993 309.01485086 847.24856708 312.70288384 847.24179779 316.39104027 C847.24057227 318.33371806 847.24910211 320.27639478 847.25816262 322.21905184 C847.06805887 379.11643144 820.01925411 431.3891286 780.43505859 470.87182617 C774.01599781 477.14646887 767.24375643 482.7120578 760 488 C759.154375 488.6290625 758.30875 489.258125 757.4375 489.90625 C732.67744446 507.82471124 703.96347459 520.18953015 674 526 C673.15115234 526.16516113 672.30230469 526.33032227 671.42773438 526.50048828 C617.05468431 536.49644635 558.51831873 524.88193172 512.8125 493.6875 C510.17718471 491.83212597 507.58101678 489.93006102 505 488 C504.36562012 487.52788086 503.73124023 487.05576172 503.07763672 486.56933594 C486.09078143 473.75703373 470.28313604 458.41668858 458 441 C457.58637207 440.42008301 457.17274414 439.84016602 456.74658203 439.24267578 C423.41940722 392.11966011 416.15324496 342.37051958 416.49303031 285.92799425 C416.52471644 279.75820797 416.52725731 273.58840368 416.53315735 267.41854858 C416.54857353 255.78528722 416.58943304 244.15226646 416.6399048 232.51911008 C416.67934813 223.22205953 416.70678916 213.92504187 416.7253418 204.62792969 C416.72668178 203.96306643 416.72802177 203.29820318 416.72940236 202.61319256 C416.74097246 196.82642661 416.75173368 191.03965919 416.76241589 185.25289154 C416.80914648 160.50174818 416.90883941 135.75111205 417 111 C376.08 111 335.16 111 293 111 C293 249.27 293 387.54 293 530 C256.04 530 219.08 530 181 530 C181 391.73 181 253.46 181 111 C139.09 111 97.18 111 54 111 C45.34291844 94.55154504 36.95621463 78.04391082 28.87295532 61.31866455 C22.77294083 48.70013619 16.61597425 36.11514669 10.28637695 23.60986328 C0 3.2166936 0 3.2166936 0 0 Z " fill="#0D563F" transform="translate(1105,468)"/>
<path d="M0 0 C23.43 0 46.86 0 71 0 C86.67901235 31.35802469 86.67901235 31.35802469 92.61401367 43.88623047 C97.26062574 53.66441889 102.14380658 63.32484235 107 73 C117.66012808 94.23879972 117.66012808 94.23879972 122.4375 104.375 C127.60738547 115.34193738 133.06239262 126.16422392 138.5 137 C144.3548424 148.66721993 150.18435377 160.33584105 155.75 172.14453125 C160.77388961 182.74008661 166.08265188 193.19522282 171.34255981 203.67486572 C176.56530917 214.08402811 181.73161526 224.50906037 186.69921875 235.04296875 C191.31447504 244.77050893 196.17041839 254.37772309 201 264 C211.66077191 285.24016574 211.66077191 285.24016574 216.4375 295.375 C221.60738547 306.34193738 227.06239262 317.16422392 232.5 328 C238.3548424 339.66721993 244.18435377 351.33584105 249.75 363.14453125 C254.77388961 373.74008661 260.08265188 384.19522282 265.34255981 394.67486572 C270.56530917 405.08402811 275.73161526 415.50906037 280.69921875 426.04296875 C285.74026417 436.66794141 291.06205148 447.15429878 296.33724976 457.66424561 C301.67134657 468.29516272 306.95375706 478.94117499 312.02661133 489.69995117 C314.61262125 495.16272407 317.27711815 500.58101589 319.9921875 505.98046875 C320.33894028 506.67043945 320.68569305 507.36041016 321.04295349 508.07128906 C322.76487981 511.49430257 324.49267681 514.91421572 326.2277832 518.33056641 C326.85375958 519.57059704 327.4796586 520.81066672 328.10546875 522.05078125 C328.66387451 523.15075439 329.22228027 524.25072754 329.79760742 525.3840332 C331 528 331 528 331 530 C289.75 530 248.5 530 206 530 C192.27754327 502.02729975 178.57090554 474.04653812 165 446 C111.87 445.67 58.74 445.34 4 445 C5.12487358 439.37563212 5.12487358 439.37563212 6.68310547 436.30908203 C7.20093094 435.27855209 7.20093094 435.27855209 7.72921753 434.22720337 C8.10474762 433.49480438 8.48027771 432.7624054 8.8671875 432.0078125 C9.25778351 431.23359955 9.64837952 430.4593866 10.05081177 429.66171265 C10.88695697 428.00552621 11.72573265 426.35066564 12.56689453 424.69702148 C14.76262352 420.37973801 16.93912622 416.0527787 19.1171875 411.7265625 C19.54586121 410.87624451 19.97453491 410.02592651 20.41619873 409.14984131 C23.69391088 402.63799307 26.8842256 396.09110657 30 389.5 C33.84220295 381.37988037 37.81167275 373.33354438 41.85498047 365.31176758 C45.87460081 357.31233229 49.7388863 349.24216534 53.56054688 341.14648438 C53.99689453 340.22544922 54.43324219 339.30441406 54.8828125 338.35546875 C55.26840332 337.53715576 55.65399414 336.71884277 56.05126953 335.87573242 C57 334 57 334 58 333 C59.59513893 332.87727151 61.19554932 332.82218957 62.79516602 332.79467773 C63.81614883 332.77473251 64.83713165 332.75478729 65.88905334 332.73423767 C66.9994548 332.71752518 68.10985626 332.70081268 69.25390625 332.68359375 C70.38448959 332.66281265 71.51507294 332.64203156 72.67991638 332.62062073 C76.30737985 332.55500203 79.93491833 332.49618323 83.5625 332.4375 C86.01498186 332.39432649 88.467456 332.3507126 90.91992188 332.30664062 C96.94653427 332.19930816 102.97322201 332.0975651 109 332 C94.84865486 302.87346876 94.84865486 302.87346876 80.4375 273.875 C75.66438342 264.37763388 70.9823058 254.84639375 66.44018555 245.23583984 C61.07775399 233.9551815 55.43185938 222.81327971 49.8112793 211.65966797 C45.04155397 202.17944348 40.42256571 192.64728099 36 183 C33.77585968 185.81457349 32.06560595 188.62258525 30.46875 191.83203125 C29.9938916 192.78303711 29.5190332 193.73404297 29.02978516 194.71386719 C28.2725415 196.24769043 28.2725415 196.24769043 27.5 197.8125 C26.96810059 198.88274414 26.43620117 199.95298828 25.88818359 201.05566406 C21.94193087 209.02309095 18.09855772 217.03702224 14.28710938 225.06958008 C10.62362624 232.76328551 6.82813976 240.3871413 3 248 C-1.23315517 256.41841203 -5.40315531 264.85939219 -9.4375 273.375 C-13.67181615 282.31130304 -18.05927788 291.16513821 -22.5 300 C-26.91980497 308.79328161 -31.28723998 317.60498561 -35.5 326.5 C-40.02341627 336.05094822 -44.73181209 345.50315185 -49.47750854 354.94476318 C-54.04708418 364.0403633 -58.50904734 373.17983795 -62.8671875 382.37890625 C-66.76571875 390.57847197 -70.82846427 398.69278198 -74.90704346 406.80383301 C-78.83624054 414.62190323 -82.69132941 422.46766387 -86.4375 430.375 C-90.67181615 439.31130304 -95.05927788 448.16513821 -99.5 457 C-104.36712906 466.68324096 -109.14114265 476.40215844 -113.77709961 486.19873047 C-118.38536427 495.89519809 -123.21279353 505.48109953 -128.05078125 515.06445312 C-128.36434067 515.68734222 -128.67790009 516.31023132 -129.0009613 516.95199585 C-129.85586077 518.6499724 -130.71312874 520.34675586 -131.57055664 522.04345703 C-132.82766593 524.64355839 -133.927404 527.31850999 -135 530 C-176.25 530 -217.5 530 -260 530 C-258.41857922 525.25573765 -256.63445424 521.04871752 -254.3671875 516.640625 C-253.64333975 515.21332947 -252.92038275 513.78558191 -252.19824219 512.35742188 C-251.83114136 511.63256592 -251.46404053 510.90770996 -251.08581543 510.16088867 C-249.40014922 506.80623288 -247.76412978 503.42821519 -246.1328125 500.046875 C-245.81106049 499.38105408 -245.48930847 498.71523315 -245.1578064 498.02923584 C-244.4916499 496.65049307 -243.82570881 495.27164621 -243.15997314 493.8927002 C-236.75174999 480.62578494 -230.23740853 467.41627705 -223.625 454.25 C-218.89435632 444.83035628 -214.18673503 435.40810416 -209.6875 425.875 C-204.02731713 413.88204729 -198.04254221 402.05193583 -192.09484863 390.19995117 C-186.52157992 379.09048756 -180.99913142 367.96788898 -175.6875 356.73046875 C-172.13179882 349.22146402 -168.42911079 341.79036184 -164.67163086 334.38037109 C-161.82855695 328.74733621 -159.077086 323.07819951 -156.36865234 317.37939453 C-149.15854307 302.21064162 -141.63907238 287.20212144 -134.09387207 272.19812012 C-127.2558057 258.59850881 -120.46785997 244.98430821 -113.93786621 231.23364258 C-109.68955571 222.30322487 -105.27216579 213.46173705 -100.82394409 204.62957764 C-94.32395259 191.71949148 -87.86452168 178.79873023 -81.6875 165.73046875 C-78.13179882 158.22146402 -74.42911079 150.79036184 -70.67163086 143.38037109 C-67.82855695 137.74733621 -65.077086 132.07819951 -62.36865234 126.37939453 C-55.15854307 111.21064162 -47.63907238 96.20212144 -40.09387207 81.19812012 C-33.21616557 67.51967215 -26.38789575 53.82646636 -19.81742859 39.99729919 C-15.75943584 31.46256935 -11.5597053 23.00431507 -7.3125 14.5625 C-3.6928125 7.3540625 -3.6928125 7.3540625 0 0 Z " fill="#0D563F" transform="translate(937,468)"/>
<path d="M0 0 C13.2 0 26.4 0 40 0 C45.87096617 15.74044882 51.74098853 31.48124816 57.60905457 47.22277832 C60.27429373 54.37230691 62.94060829 61.52143187 65.6086731 68.66990662 C67.02001295 72.45200803 68.43020639 76.23453613 69.84008789 80.0171814 C70.47207591 81.71204934 71.10453655 83.40674115 71.73754883 85.10122681 C76.93978258 99.02817278 81.96360311 113.01000865 87 127 C87 85.09 87 43.18 87 0 C97.56 0 108.12 0 119 0 C119 63.36 119 126.72 119 192 C106.13 192 93.26 192 80 192 C73.57304601 174.96824502 67.30042932 157.887809 61.13790512 140.75881195 C60.42717272 138.78380216 59.7158303 136.80901309 59.00430298 134.83428955 C51.22365267 113.23945989 43.49593817 91.62597882 35.82421875 69.9921875 C35.54926575 69.21706314 35.27431274 68.44193878 34.99102783 67.64332581 C33.9729235 64.76863848 32.96440953 61.8932286 32 59 C32 102.89 32 146.78 32 192 C21.44 192 10.88 192 0 192 C0 128.64 0 65.28 0 0 Z " fill="#0D5640" transform="translate(1028,1155)"/>
<path d="M0 0 C85.60231397 0 85.60231397 0 101 14.1875 C111.57937717 25.82874774 114.66352349 40.91097303 114.28125 56.265625 C113.28245562 69.52739479 109.65534548 81.41849212 99.671875 90.62890625 C94.34188034 95 94.34188034 95 91 95 C93.21268216 97.29778532 95.39856287 99.3052822 97.9375 101.25 C106.39240508 108.3631947 109.30127755 119.27808941 110.265625 129.93554688 C110.86060555 139.232118 111.03393561 148.53423326 110.953125 157.84765625 C110.93711035 164.84205555 111.46191917 171.77986037 112 178.75 C112.495 185.30875 112.495 185.30875 113 192 C101.78 192 90.56 192 79 192 C75.09217445 178.32261056 75.71771863 164.15293469 75.52319336 150.01904297 C75.48321937 147.23905535 75.43178304 144.45945566 75.37890625 141.6796875 C75.3704921 140.84194794 75.36207794 140.00420837 75.35340881 139.14108276 C75.1700406 130.27471634 73.92730749 121.92062001 68 115 C58.03393571 108.56358348 46.70424614 111 35 111 C35 137.73 35 164.46 35 192 C23.45 192 11.9 192 0 192 C0 128.64 0 65.28 0 0 Z M35 29 C35 46.49 35 63.98 35 82 C55.89010505 83.44510523 55.89010505 83.44510523 73.5 75 C78.94791609 67.67837867 79.90471189 57.51169173 78.68359375 48.72265625 C77.54173667 42.54016883 75.30846921 38.30846921 70.8125 33.8125 C59.30175496 26.39446431 49.05975489 29 35 29 Z " fill="#0D5640" transform="translate(597,1155)"/>
<path d="M0 0 C11.55 0 23.1 0 35 0 C35 25.08 35 50.16 35 76 C49.85 76 64.7 76 80 76 C80 50.92 80 25.84 80 0 C91.55 0 103.1 0 115 0 C115 63.36 115 126.72 115 192 C103.45 192 91.9 192 80 192 C80 163.95 80 135.9 80 107 C65.15 107 50.3 107 35 107 C35 135.05 35 163.1 35 192 C23.45 192 11.9 192 0 192 C0 128.64 0 65.28 0 0 Z " fill="#0D5640" transform="translate(2039,1155)"/>
<path d="M0 0 C11.55 0 23.1 0 35 0 C35.33 26.73 35.66 53.46 36 81 C41.25026179 72.24956369 46.49401637 63.50647487 51.625 54.6875 C52.50333496 53.18123047 52.50333496 53.18123047 53.39941406 51.64453125 C56.57850724 46.18599289 59.74014073 40.7178721 62.8828125 35.23828125 C63.85226807 33.54989136 63.85226807 33.54989136 64.84130859 31.82739258 C66.06318089 29.69732127 67.28250037 27.5657823 68.49853516 25.43237305 C69.66649462 23.39624681 70.85982979 21.37448997 72.07666016 19.3671875 C73.53605154 16.81223372 74.74732762 14.37041277 75.93505859 11.6953125 C80.97659355 1.12562196 80.97659355 1.12562196 86.19482422 -0.81713867 C92.49255926 -1.98704134 98.77771453 -1.46051489 105.125 -1 C107.05439168 -0.91963568 108.98410563 -0.8466501 110.9140625 -0.78125 C115.6174026 -0.60588888 120.30512706 -0.33066964 125 0 C121.55456458 6.45600068 117.74668875 12.55700019 113.64453125 18.61328125 C112.39744724 20.4692266 111.15088401 22.32552197 109.90478516 24.18212891 C109.26252991 25.13750549 108.62027466 26.09288208 107.95855713 27.07720947 C104.72376627 31.90454688 101.52346477 36.75452916 98.32421875 41.60546875 C97.69452179 42.5600296 97.06482483 43.51459045 96.41604614 44.49807739 C95.14664389 46.42293951 93.87750873 48.3479778 92.60864258 50.27319336 C90.64459488 53.25258558 88.67875499 56.2307906 86.71289062 59.20898438 C85.4582256 61.11190814 84.2036641 63.01490016 82.94921875 64.91796875 C82.3639592 65.80421432 81.77869965 66.6904599 81.17570496 67.6035614 C80.37269707 68.82303215 80.37269707 68.82303215 79.5534668 70.06713867 C78.84736519 71.1379493 78.84736519 71.1379493 78.1269989 72.23039246 C76.95618272 74.00159029 76.95618272 74.00159029 76 76 C77.0850912 78.82731778 78.24302978 81.54792915 79.49609375 84.30078125 C79.87571259 85.15171356 80.25533142 86.00264587 80.64645386 86.87936401 C81.47076283 88.72499748 82.29861423 90.56905188 83.12954712 92.41171265 C84.89387887 96.32466036 86.6413696 100.2450427 88.38938904 104.16529846 C89.28551771 106.17496925 90.18246845 108.18427367 91.08021545 110.19322205 C95.56713261 120.24213988 99.93705333 130.33986972 104.28536987 140.44934082 C105.24833039 142.6878014 106.21181003 144.92603699 107.17578125 147.1640625 C107.48867599 147.89052979 107.80157074 148.61699707 108.12394714 149.36547852 C110.41913363 154.68248891 112.75493846 159.98069254 115.10546875 165.2734375 C115.76725136 166.76794954 116.42895532 168.26249642 117.09057617 169.75708008 C118.331591 172.55998123 119.58176272 175.35854519 120.8371582 178.1550293 C121.39181176 179.40657306 121.94611312 180.65827299 122.5 181.91015625 C122.9846875 182.99433838 123.469375 184.07852051 123.96875 185.19555664 C125 188 125 188 125 192 C112.46 192 99.92 192 87 192 C84.03326443 186.06652886 81.19348031 180.3535118 78.7578125 174.23046875 C78.47228012 173.52294464 78.18674774 172.81542053 77.89256287 172.0864563 C76.9661135 169.78836257 76.04545641 167.48799985 75.125 165.1875 C74.47557633 163.57234996 73.82574804 161.95736257 73.17553711 160.3425293 C72.16177538 157.82460758 71.14835244 155.30655492 70.13652039 152.78785706 C67.67183748 146.65517921 65.18314631 140.53260197 62.68359375 134.4140625 C61.64575468 131.86989948 60.60812279 129.32565203 59.57049561 126.78140259 C58.8995521 125.13804806 58.22755807 123.49512203 57.55450439 121.85263062 C56.6178029 119.56579198 55.68538537 117.27725101 54.75390625 114.98828125 C54.47340927 114.30669952 54.19291229 113.6251178 53.90391541 112.92288208 C52 108.2277853 52 108.2277853 52 106 C50.65420785 107.320757 49.32496858 108.65835406 48 110 C47.52647095 110.45639862 47.05294189 110.91279724 46.56506348 111.38302612 C35.46815988 122.54978671 34.55284798 134.42274723 34.57230377 149.39372826 C34.59591094 152.36263812 34.65299575 155.3304495 34.71246338 158.29882812 C34.78678593 162.78090076 34.76999568 167.26351843 34.76914978 171.74608612 C34.77774246 178.50026309 34.89924728 185.24375533 35 192 C23.45 192 11.9 192 0 192 C0 128.64 0 65.28 0 0 Z " fill="#0D5640" transform="translate(742,1155)"/>
<path d="M0 0 C14.85 0 29.7 0 45 0 C46.49447373 4.4834212 47.72491843 8.76254367 48.80566406 13.34350586 C49.06099049 14.42088438 49.06099049 14.42088438 49.32147503 15.52002811 C49.88890239 17.91766854 50.45230386 20.31623552 51.015625 22.71484375 C51.42359568 24.44332447 51.83176854 26.17175747 52.24012756 27.90014648 C53.3491194 32.59792944 54.45427631 37.29660671 55.55844498 41.99552536 C56.24959131 44.93576136 56.94170391 47.87576825 57.63412476 50.81570435 C65.00509236 82.11534004 72.31026431 113.43027771 79.57426453 144.75490189 C80.3139254 147.94364504 81.05429512 151.13222296 81.7947998 154.32077026 C82.95847916 159.33255449 84.11974474 164.34489188 85.27902031 169.35769653 C85.70695859 171.20681336 86.135614 173.05576438 86.56501961 174.90454102 C87.15000663 177.42408344 87.73224933 179.94424388 88.3137207 182.46459961 C88.48649158 183.20610229 88.65926247 183.94760496 88.83726883 184.71157742 C90 189.7714277 90 189.7714277 90 192 C77.79 192 65.58 192 53 192 C51.32589049 184.0014768 49.65679758 176.00210631 48 168 C47.7922998 166.99839844 47.58459961 165.99679687 47.37060547 164.96484375 C46.80497647 162.22747872 46.24515884 159.48899841 45.6875 156.75 C45.51637695 155.9240332 45.34525391 155.09806641 45.16894531 154.24707031 C44.46004888 150.73795929 44 147.59524232 44 144 C29.81 144.33 15.62 144.66 1 145 C0.36191406 148.22523438 -0.27617187 151.45046875 -0.93359375 154.7734375 C-1.55179718 157.88783358 -2.17099145 161.00203111 -2.7902832 164.11621094 C-3.22100901 166.28495029 -3.65070024 168.45389539 -4.0793457 170.62304688 C-4.69472403 173.73622091 -5.3137876 176.84864239 -5.93359375 179.9609375 C-6.12529648 180.934935 -6.31699921 181.9089325 -6.51451111 182.91244507 C-6.69462234 183.81322784 -6.87473358 184.71401062 -7.06030273 185.64208984 C-7.21796616 186.43706879 -7.37562958 187.23204773 -7.53807068 188.05111694 C-8 190 -8 190 -9 192 C-20.55 192 -32.1 192 -44 192 C-42.87500467 183.00003739 -42.87500467 183.00003739 -42.00035095 179.25032043 C-41.80336326 178.39679332 -41.60637556 177.5432662 -41.40341854 176.66387463 C-41.18899892 175.7536168 -40.9745793 174.84335897 -40.75366211 173.90551758 C-40.41116724 172.42953456 -40.41116724 172.42953456 -40.06175327 170.92373371 C-39.30412927 167.6630911 -38.5407376 164.40382739 -37.77734375 161.14453125 C-37.23852763 158.83055958 -36.70008328 156.51650131 -36.1619873 154.20236206 C-34.72228635 148.01514271 -33.2777028 141.82907301 -31.83216476 135.64321518 C-30.34302568 129.26711999 -28.85827426 122.89000358 -27.37329102 116.51293945 C-25.59440433 108.87485588 -23.815138 101.23686186 -22.03379822 93.59934998 C-18.59331638 78.8477679 -15.16288186 64.09392947 -11.75 49.3359375 C-11.36658835 47.67854168 -10.98317072 46.02114724 -10.5997467 44.36375427 C-9.20892209 38.35092907 -7.81844994 32.33802307 -6.43014526 26.32461548 C-5.80157578 23.60214574 -5.17229618 20.87984232 -4.54211426 18.15774536 C-3.98983738 15.77209064 -3.43864221 13.38618512 -2.88879395 10.99996948 C-2.6514856 9.9760611 -2.41417725 8.95215271 -2.16967773 7.8972168 C-1.96608139 7.01591599 -1.76248505 6.13461517 -1.55271912 5.22660828 C-1 3 -1 3 0 0 Z M21 36 C20.86013672 36.82048828 20.72027344 37.64097656 20.57617188 38.48632812 C17.20927082 58.13560599 13.54075822 77.70354272 9.54101562 97.234375 C9.37189667 98.06485855 9.20277771 98.8953421 9.02853394 99.75099182 C8.71050977 101.31122165 8.38995288 102.87093813 8.06643677 104.43003845 C7.47248283 107.34514706 7 110.01589466 7 113 C16.9 113 26.8 113 37 113 C36.38598247 107.47384225 35.75842407 102.2612723 34.72485352 96.84375 C34.53925873 95.86395424 34.53925873 95.86395424 34.34991455 94.86436462 C33.94671271 92.74216339 33.53823495 90.62102741 33.12890625 88.5 C32.84360458 87.01311352 32.55836287 85.52621554 32.2731781 84.03930664 C31.67815804 80.94252018 31.08007193 77.84634309 30.48022461 74.75048828 C29.71079121 70.7762429 28.95278409 66.7999073 28.19741917 62.82296753 C27.61392626 59.76103308 27.02266392 56.70063748 26.42918205 53.640625 C26.1460544 52.17389302 25.86579865 50.70660371 25.58844185 49.23876953 C25.20197376 47.19786224 24.80468838 45.1593564 24.40454102 43.12109375 C24.18105484 41.9602124 23.95756866 40.79933105 23.72731018 39.60327148 C23.36729164 38.3146521 23.36729164 38.3146521 23 37 C22.34 36.67 21.68 36.34 21 36 Z " fill="#0D5640" transform="translate(486,1155)"/>
<path d="M0 0 C14.85 0 29.7 0 45 0 C47.46056909 9.2271341 49.87032314 18.41402729 52.03344727 27.70703125 C52.30896927 28.88218292 52.58449127 30.05733459 52.86836243 31.26809692 C53.61430681 34.4516949 54.35822554 37.63575747 55.1012013 40.82004929 C55.8951173 44.22035382 56.69173196 47.62002616 57.48802185 51.01977539 C59.00306489 57.49001468 60.51576615 63.96079903 62.02759355 70.43179035 C63.70588114 77.61479411 65.38669465 84.7972059 67.06778073 91.97955513 C69.19374918 101.06264651 71.31928495 110.14583796 73.44180298 119.22973633 C74.07593014 121.94352633 74.71007248 124.65731278 75.34423828 127.37109375 C75.49877889 128.03242876 75.6533195 128.69376377 75.81254315 129.37513924 C78.00669337 138.76357904 80.2092917 148.15000846 82.41748047 157.53515625 C83.19055484 160.82436333 83.96347406 164.11360683 84.73634148 167.40286255 C85.21782376 169.449825 85.70009555 171.49660191 86.18319893 173.54318237 C86.83621455 176.30958983 87.48663525 179.07659503 88.13647461 181.84375 C88.42378983 183.05569786 88.42378983 183.05569786 88.71690941 184.29212952 C90 189.77233309 90 189.77233309 90 192 C77.79 192 65.58 192 53 192 C49.61914672 178.47658689 49.61914672 178.47658689 48.39453125 171.96875 C48.26559982 171.28494263 48.1366684 170.60113525 48.00382996 169.89660645 C47.73751302 168.47892936 47.4729635 167.06091908 47.21020508 165.64257812 C46.80771072 163.47419844 46.39734445 161.30740376 45.98632812 159.140625 C45.72609699 157.75008704 45.46631447 156.35946503 45.20703125 154.96875 C44.85862183 153.10379883 44.85862183 153.10379883 44.50317383 151.20117188 C44 148 44 148 44 144 C29.48 144 14.96 144 0 144 C-0.33 147.3 -0.66 150.6 -1 154 C-1.49220677 156.859572 -2.01011148 159.68786931 -2.59375 162.52734375 C-2.74533569 163.28294083 -2.89692139 164.0385379 -3.05310059 164.81703186 C-3.37019963 166.39288555 -3.68959034 167.96827978 -4.01123047 169.54321289 C-4.50367501 171.95550243 -4.9887308 174.36919157 -5.47265625 176.78320312 C-5.78342986 178.32300236 -6.09461283 179.86271905 -6.40625 181.40234375 C-6.55106812 182.12107162 -6.69588623 182.8397995 -6.84509277 183.58030701 C-7.43414632 186.45675502 -8.07036651 189.21109954 -9 192 C-20.55 192 -32.1 192 -44 192 C-43.35227347 186.17046119 -42.64425058 180.79935572 -41.29199219 175.16064453 C-41.0345051 174.05848099 -41.0345051 174.05848099 -40.77181625 172.93405151 C-40.20172467 170.49912827 -39.6242601 168.06601562 -39.046875 165.6328125 C-38.63406145 163.87527012 -38.22176242 162.11760683 -37.80993652 160.35983276 C-36.9250642 156.58701756 -36.03709102 152.81495151 -35.14660645 149.04345703 C-33.0103514 139.99512749 -30.88891329 130.94331905 -28.76631927 121.89177704 C-28.02507457 118.73148359 -27.2831961 115.57133931 -26.5413208 112.41119385 C-22.98141404 97.23803613 -19.4635069 82.05547447 -15.96875 66.8671875 C-15.72617714 65.81332981 -15.48360428 64.75947212 -15.23368073 63.67367935 C-12.87410939 53.42173466 -10.51782415 43.16904108 -8.16633606 32.91523933 C-7.30026901 29.14104803 -6.43221574 25.36731549 -5.56367493 21.59369278 C-5.15999173 19.83747212 -4.75725535 18.08103353 -4.35551453 16.32436752 C-3.80863419 13.93316027 -3.25869327 11.54267708 -2.70800781 9.15234375 C-2.54818295 8.44981035 -2.38835808 7.74727695 -2.22369003 7.02345467 C-1.11398574 2.22797147 -1.11398574 2.22797147 0 0 Z M21 35 C20.86013672 35.82048828 20.72027344 36.64097656 20.57617188 37.48632812 C19.88981914 41.49189149 19.19719544 45.49631096 18.5 49.5 C18.37083191 50.24187561 18.24166382 50.98375122 18.10858154 51.74810791 C15.51095689 66.60033896 12.57975879 81.37877353 9.54101562 96.14648438 C9.37189667 96.97516022 9.20277771 97.80383606 9.02853394 98.65762329 C8.7112653 100.21136727 8.39076587 101.76445641 8.06643677 103.31674194 C7.3875555 106.64830774 7 109.58018696 7 113 C16.9 113 26.8 113 37 113 C35.52551172 102.38225044 35.52551172 102.38225044 33.703125 91.85864258 C33.35266113 90.04285454 33.35266113 90.04285454 32.99511719 88.19038391 C32.62628418 86.31143684 32.62628418 86.31143684 32.25 84.39453125 C31.98849267 83.05411466 31.72710185 81.71367534 31.46582031 80.37321472 C30.92374035 77.59718688 30.37881111 74.82173661 29.83203125 72.04663086 C29.13230033 68.4928858 28.44223198 64.93733615 27.75445557 61.38126087 C27.22035374 58.62744346 26.68009358 55.87486125 26.13806152 53.12259483 C25.75622587 51.17626632 25.38050302 49.2287418 25.00488281 47.28120422 C24.77124023 46.10535263 24.53759766 44.92950104 24.296875 43.71801758 C24.09416992 42.68324783 23.89146484 41.64847809 23.68261719 40.58235168 C23.09336535 37.78943776 23.09336535 37.78943776 21 35 Z " fill="#0D5640" transform="translate(917,1155)"/>
<path d="M0 0 C14.85 0 29.7 0 45 0 C47.42123878 9.07964542 49.80063726 18.11580824 51.92578125 27.26049805 C52.32202446 28.95265694 52.32202446 28.95265694 52.72627258 30.67900085 C53.59060095 34.37271771 54.45160054 38.06720135 55.3125 41.76171875 C55.9277917 44.39591886 56.54374998 47.02996299 57.15966797 49.66401672 C58.45224602 55.19353457 59.74308795 60.72345527 61.03271484 66.25366211 C62.32851214 71.81030568 63.62559484 77.36664657 64.92431641 82.92260742 C65.08204655 83.59738062 65.23977669 84.27215381 65.40228653 84.96737468 C65.55977245 85.64109619 65.71725838 86.31481769 65.8795166 87.008955 C71.99293083 113.16201681 78.08789095 139.31935637 84.13568115 165.48768044 C84.6669774 167.78652023 85.19858968 170.085287 85.73052979 172.38397789 C86.45563938 175.51849284 87.17926323 178.65334652 87.90234375 181.78833008 C88.11715897 182.71622408 88.33197418 183.64411808 88.55329895 184.60013008 C90 190.88503623 90 190.88503623 90 192 C77.79 192 65.58 192 53 192 C50.74910184 184.12185645 50.74910184 184.12185645 50.13037109 180.97998047 C49.99037689 180.27590057 49.85038269 179.57182068 49.70614624 178.84640503 C49.56335236 178.11076324 49.42055847 177.37512146 49.2734375 176.6171875 C49.12089508 175.83989288 48.96835266 175.06259827 48.81118774 174.26174927 C48.49202821 172.63004536 48.17445411 170.99803061 47.85839844 169.36572266 C47.37483955 166.87417329 46.88299842 164.3843518 46.390625 161.89453125 C46.08022577 160.30218138 45.77031311 158.70973657 45.4609375 157.1171875 C45.31409515 156.37749725 45.16725281 155.63780701 45.01596069 154.8757019 C44.29611965 151.11859255 44 147.86264071 44 144 C29.48 144 14.96 144 0 144 C-0.66 148.29 -1.32 152.58 -2 157 C-2.55328442 159.98310704 -3.11905303 162.95440347 -3.7265625 165.92578125 C-3.86215576 166.60072632 -3.99774902 167.27567139 -4.13745117 167.97106934 C-4.63007691 170.41886391 -5.12780459 172.86562952 -5.625 175.3125 C-6.73875 180.819375 -7.8525 186.32625 -9 192 C-20.55 192 -32.1 192 -44 192 C-43.38848324 186.49634914 -42.82837465 181.67460421 -41.59811401 176.38703918 C-41.31236008 175.14748474 -41.02660614 173.9079303 -40.73219299 172.6308136 C-40.41644767 171.28485899 -40.10060268 169.93892775 -39.78466797 168.59301758 C-39.45061235 167.15280236 -39.11701197 165.71248149 -38.78382874 164.27206421 C-37.88104217 160.37499404 -36.97191162 156.47942889 -36.06160879 152.58410859 C-35.10158117 148.47105263 -34.14745293 144.35662841 -33.19265747 140.24235535 C-31.3777164 132.42570497 -29.5574993 124.61029314 -27.73538315 116.79531258 C-25.68939314 108.01898698 -23.64931431 99.24129108 -21.60974288 90.46347201 C-18.06961184 75.22841371 -14.52798878 59.99369686 -10.97398186 44.76186848 C-9.46630339 38.29944872 -7.96067765 31.83660169 -6.46751821 25.37080914 C-5.81534633 22.54754538 -5.16136756 19.72470166 -4.50720429 16.90189874 C-4.05428575 14.94402708 -3.6040212 12.98554207 -3.15382195 11.02704334 C-2.74946765 9.28347569 -2.74946765 9.28347569 -2.33694458 7.50468445 C-2.10177691 6.48519053 -1.86660923 5.46569662 -1.62431526 4.41530895 C-1 2 -1 2 0 0 Z M21 34 C20.86013672 34.85601807 20.72027344 35.71203613 20.57617188 36.59399414 C17.33073123 56.31578558 13.70851656 75.91581903 9.54101562 95.46508789 C9.37189667 96.26657761 9.20277771 97.06806732 9.02853394 97.8938446 C8.71234033 99.39066322 8.39193598 100.88660134 8.06643677 102.38142395 C7.28642951 106.08048345 7 109.16923615 7 113 C16.9 113 26.8 113 37 113 C35.43492226 102.69442727 35.43492226 102.69442727 33.57958984 92.46557617 C33.45250137 91.81994217 33.3254129 91.17430817 33.19447327 90.5091095 C32.78585954 88.43654594 32.37346209 86.36475706 31.9609375 84.29296875 C31.67209448 82.83185963 31.38349432 81.37070247 31.09512329 79.90950012 C30.34461062 76.10994313 29.59085621 72.31103669 28.83636475 68.51226807 C28.06338386 64.61729927 27.29355353 60.72170793 26.5234375 56.82617188 C25.01866301 49.21684411 23.51045445 41.60820257 22 34 C21.67 34 21.34 34 21 34 Z " fill="#0D5640" transform="translate(1340,1155)"/>
<path d="M0 0 C8.86391363 8.32343109 13.76253388 20.39587153 15.1875 32.3125 C15.1875 35.9425 15.1875 39.5725 15.1875 43.3125 C3.9675 43.3125 -7.2525 43.3125 -18.8125 43.3125 C-20.1325 38.0325 -21.4525 32.7525 -22.8125 27.3125 C-27.15587109 20.57144127 -27.15587109 20.57144127 -33.8125 17.3125 C-39.65371617 16.83678013 -44.98138893 16.47725635 -50.375 18.9375 C-55.91396556 24.3344408 -57.93272966 28.99256349 -58.0625 36.5625 C-57.96232177 43.41104799 -56.68931028 48.52852463 -52.125 53.75 C-44.10712398 61.16148203 -33.20555411 65.66439107 -23.5 70.4375 C-12.7087374 75.75957522 -3.43677933 81.84005657 5.1875 90.3125 C6.06921875 91.17488281 6.06921875 91.17488281 6.96875 92.0546875 C17.68623264 103.48302358 19.92690297 119.90608207 19.46875 134.9453125 C18.75650729 148.60256646 13.9495117 161.30726149 4.4453125 171.28125 C-10.21237699 184.46809867 -28.50156488 187.22984582 -47.50146484 186.46923828 C-61.61287741 185.51217861 -75.54554602 180.14605907 -85.4375 169.8125 C-95.22072105 157.84511798 -99.14112276 143.56446233 -98.8125 128.3125 C-87.09438331 128.20347086 -75.4902897 128.21341391 -63.8125 129.3125 C-63.66554688 130.13492187 -63.51859375 130.95734375 -63.3671875 131.8046875 C-61.65891895 140.30675971 -59.69457555 148.40330182 -52.65625 154.0390625 C-46.04131029 157.88345928 -39.30390563 158.34579733 -31.8125 157.3125 C-26.45200415 155.71539506 -22.78999884 153.12230582 -19.8125 148.3125 C-16.61954707 140.29515835 -16.41226463 131.15268369 -18.8046875 122.8828125 C-24.35652706 110.5558467 -35.5857637 105.00070946 -47.25 99.25 C-66.49662239 89.66442728 -83.39388508 79.83235647 -91.83203125 59.2421875 C-96.30404621 45.879593 -95.32478215 27.99431548 -89.41796875 15.3203125 C-82.7423645 2.5775135 -73.61639026 -4.85633324 -60.05859375 -9.6640625 C-40.11607671 -15.22820676 -16.64748772 -12.8572115 0 0 Z " fill="#0D5640" transform="translate(1533.8125,1163.6875)"/>
<path d="M0 0 C10.41069851 8.13098351 15.05183489 19.95192292 17.58984375 32.55078125 C18.08011452 36.673725 18 40.84800884 18 45 C6.45 45 -5.1 45 -17 45 C-17.99 40.38 -18.98 35.76 -20 31 C-20.99 29.02 -21.98 27.04 -23 25 C-23.33 24.01 -23.66 23.02 -24 22 C-26.42383077 20.83046584 -26.42383077 20.83046584 -29 20 C-29.66 19.67 -30.32 19.34 -31 19 C-39.75037218 18.2169003 -39.75037218 18.2169003 -48.0625 20.5 C-53.13946452 24.82082087 -54.98875487 29.45387118 -55.875 36 C-56.33473943 43.31097825 -54.75917947 49.26457859 -50 55 C-43.43925143 60.94530744 -36.07028346 64.72484219 -28.125 68.5 C-8.93250757 77.68290383 9.34045764 88.22815066 18.2109375 108.5390625 C23.02942249 123.56701074 23.64160905 142.47921499 17 157 C16.56429688 157.969375 16.12859375 158.93875 15.6796875 159.9375 C9.32993068 172.70640989 -1.20417667 180.28560743 -14.3984375 185.1875 C-31.81086945 190.62561689 -53.10884149 189.77491203 -69.5 181.6875 C-81.35942519 175.27087062 -88.39895479 166.63728501 -93.15625 153.8828125 C-95.41037007 146.18123558 -97.1139215 138.03405512 -97 130 C-84.95249476 129.8936311 -73.00505617 129.85275914 -61 131 C-60.90203125 131.61746094 -60.8040625 132.23492188 -60.703125 132.87109375 C-59.29290333 140.85829753 -57.06863329 149.25940094 -51 155 C-44.38644363 159.28682545 -37.72220162 159.88315277 -30 159 C-24.87130519 157.78555496 -21.27796587 155.09745733 -18 151 C-13.93862162 143.29738583 -13.77615162 134.60353219 -15.62109375 126.15625 C-20.83777889 111.1321968 -36.81042084 104.47190155 -50.1159668 97.92749023 C-67.37760331 89.42051949 -82.18579137 79.96780966 -89.2734375 61.32421875 C-91.19331321 55.18268085 -91.21727505 49.25636566 -91.25 42.875 C-91.270625 41.89273437 -91.29125 40.91046875 -91.3125 39.8984375 C-91.38251781 26.59505438 -87.27137477 13.7200713 -78.06640625 3.87890625 C-58.27339014 -14.11814621 -21.45856142 -16.28415654 0 0 Z " fill="#0D5640" transform="translate(1267,1162)"/>
<path d="M0 0 C32.67 0 65.34 0 99 0 C99 10.23 99 20.46 99 31 C77.88 31 56.76 31 35 31 C35 46.18 35 61.36 35 77 C55.13 77 75.26 77 96 77 C96 86.9 96 96.8 96 107 C75.54 107 55.08 107 34 107 C34 125.15 34 143.3 34 162 C56.77 162 79.54 162 103 162 C101.88591185 172.02679337 100.65853874 182.04876756 99 192 C66.33 192 33.66 192 0 192 C0 128.64 0 65.28 0 0 Z " fill="#0D5640" transform="translate(1777,1155)"/>
<path d="M0 0 C11.07663872 10.11554209 16.45987431 23.00697785 18.80078125 37.64453125 C18.80078125 41.27453125 18.80078125 44.90453125 18.80078125 48.64453125 C7.58078125 48.64453125 -3.63921875 48.64453125 -15.19921875 48.64453125 C-15.75609375 46.00453125 -16.31296875 43.36453125 -16.88671875 40.64453125 C-19.21466898 30.2253199 -19.21466898 30.2253199 -25.98046875 22.2890625 C-30.85601616 19.45466688 -35.65342695 18.69437811 -41.19921875 19.64453125 C-47.79663016 21.75665217 -52.06069313 25.61364124 -55.28515625 31.69140625 C-62.56226904 47.99651611 -62.38606542 66.92636273 -62.38452148 84.42993164 C-62.3866948 87.17675596 -62.40486802 89.92316893 -62.42382812 92.66992188 C-63.00653341 124.01712995 -63.00653341 124.01712995 -50.49609375 151.41796875 C-45.72729241 155.68584558 -42.00679895 157.0219919 -35.609375 156.91796875 C-30.86077944 156.37923019 -27.10644531 154.51212713 -23.6953125 151.171875 C-18.57401299 144.7052789 -17.21794526 136.6245556 -16.19921875 128.64453125 C-15.19921875 127.64453125 -15.19921875 127.64453125 -11.96459961 127.53100586 C-10.53107749 127.53116494 -9.09754963 127.53685718 -7.6640625 127.546875 C-6.53418663 127.54899742 -6.53418663 127.54899742 -5.38148499 127.55116272 C-2.96652315 127.55677749 -0.55165274 127.56933242 1.86328125 127.58203125 C3.49674346 127.58704435 5.13020711 127.59160759 6.76367188 127.59570312 C10.7760771 127.60675171 14.78841366 127.62402619 18.80078125 127.64453125 C17.76447802 144.75156101 12.97545047 162.7089384 -0.19921875 174.64453125 C-16.53616286 187.08201756 -35.19054491 188.55649837 -55.05859375 186.18359375 C-62.05790881 184.6096737 -68.18167795 181.49996677 -74.19921875 177.64453125 C-74.83472656 177.23847656 -75.47023438 176.83242187 -76.125 176.4140625 C-91.20496561 165.14742152 -95.57831514 144.10541609 -98.19921875 126.64453125 C-99.17292841 119.65353091 -99.37430172 112.74404282 -99.40234375 105.69140625 C-99.40804382 104.5553595 -99.4137439 103.41931274 -99.4196167 102.24884033 C-99.42902682 99.84852008 -99.43558474 97.44818714 -99.43945312 95.04785156 C-99.44907843 91.44702333 -99.48010773 87.84678646 -99.51171875 84.24609375 C-99.64122914 56.07934461 -97.36759431 24.16245789 -76.6015625 2.79296875 C-56.5570384 -15.13302841 -21.26729364 -17.39250722 0 0 Z " fill="#0D5640" transform="translate(1996.19921875,1163.35546875)"/>
<path d="M0 0 C38.61 0 77.22 0 117 0 C117 10.23 117 20.46 117 31 C103.47 31 89.94 31 76 31 C76 84.13 76 137.26 76 192 C64.45 192 52.9 192 41 192 C41 138.87 41 85.74 41 31 C27.47 31 13.94 31 0 31 C0 20.77 0 10.54 0 0 Z " fill="#0D5640" transform="translate(1639,1155)"/>
<path d="M0 0 C6.27 0 12.54 0 19 0 C27.70846443 20.62065256 35.92527847 41.42199255 44.05566406 62.27661133 C44.476689 63.35545593 44.89771393 64.43430054 45.33149719 65.5458374 C46.11929263 67.56529118 46.90584885 69.58522908 47.69084167 71.60577393 C50.36081738 78.45227721 53.17155337 85.21172809 56 92 C56 61.64 56 31.28 56 0 C60.62 0 65.24 0 70 0 C70 40.59 70 81.18 70 123 C64.06 123 58.12 123 52 123 C49.15554153 116.69718259 46.48868399 110.35148195 43.9453125 103.921875 C43.56245087 102.95695129 43.17958923 101.99202759 42.78512573 100.99786377 C41.97232644 98.94752406 41.16050651 96.89679587 40.34960938 94.84570312 C39.16617981 91.85409888 37.97787451 88.8644686 36.7890625 85.875 C29.31294146 66.99051245 22.19060725 48.00374774 15 29 C15 60.02 15 91.04 15 123 C10.05 123 5.1 123 0 123 C0 82.41 0 41.82 0 0 Z " fill="#0D5640" transform="translate(803,1441)"/>
<path d="M0 0 C48.45365854 0 48.45365854 0 57.7265625 8.6015625 C64.50995285 15.91960431 66 24.20853882 66 34 C65.22412896 43.79537192 63.21833967 51.38933185 55.75 58 C54.51066086 59.01318236 53.26424071 60.01806547 52 61 C52.9075 61.680625 53.815 62.36125 54.75 63.0625 C61.54373176 68.81473987 62.91841441 75.51477846 64 84 C64.33603878 89.20616609 64.46226605 94.41034446 64.5625 99.625 C64.74003541 107.79356934 64.91690624 115.89022357 66 124 C60.39 124 54.78 124 49 124 C48.30028023 119.1019616 47.85102426 114.74147076 47.75390625 109.8515625 C47.7209686 108.50259766 47.68775694 107.15363948 47.65429688 105.8046875 C47.60705359 103.71619147 47.5625513 101.62772261 47.52319336 99.5390625 C47.74697139 85.88664569 47.74697139 85.88664569 42.8125 73.5625 C35.59135312 66.98323285 25.15758891 68.5386817 16 68 C16 86.48 16 104.96 16 124 C10.72 124 5.44 124 0 124 C0 83.08 0 42.16 0 0 Z M15 14 C15 27.53 15 41.06 15 55 C30.08135811 56.15291503 30.08135811 56.15291503 43.5703125 50.67578125 C48.96650617 44.801639 49.40088313 38.5258481 49.25 30.90625 C48.79160097 25.57736131 47.11636959 22.3577468 43.6875 18.1875 C35.23157874 11.30477339 25.93062612 14 15 14 Z " fill="#0D5640" transform="translate(1357,1440)"/>
<path d="M0 0 C5.61 0 11.22 0 17 0 C17.00364563 1.16796112 17.00729126 2.33592224 17.01104736 3.53927612 C17.04806975 14.5734349 17.10592166 25.60731646 17.18390274 36.64126396 C17.22332662 42.31326286 17.25554017 47.98510769 17.27099609 53.65722656 C17.28619602 59.1363343 17.32070119 64.61501832 17.36830902 70.09393692 C17.38308837 72.1789493 17.39103903 74.26402218 17.39188385 76.34908676 C17.39426562 79.28119253 17.42144266 82.21213872 17.45410156 85.14404297 C17.4490712 85.99641037 17.44404083 86.84877777 17.43885803 87.72697449 C17.56473194 95.08328616 19.24601452 102.24601452 24.5625 107.5625 C29.83704537 110.67312932 35.04088963 110.44458212 41 110 C46.25950587 108.44162789 48.28769134 105.64167449 51.01953125 101.1328125 C53.41668468 95.91828751 53.16772821 90.42737984 53.20532227 84.8034668 C53.21522186 83.88590103 53.22512146 82.96833527 53.23532104 82.02296448 C53.26683901 78.99840857 53.29165507 75.97383697 53.31640625 72.94921875 C53.33698415 70.84885761 53.35798085 68.74850053 53.37937927 66.64814758 C53.43451352 61.1260813 53.4839609 55.60397817 53.53222656 50.08184814 C53.58250476 44.44450612 53.63815783 38.80721745 53.69335938 33.16992188 C53.80083517 22.11332685 53.90230359 11.05668546 54 0 C59.28 0 64.56 0 70 0 C70.06973294 12.17917605 70.12292917 24.35830404 70.15543652 36.53763962 C70.17104409 42.19394774 70.19219221 47.85011854 70.22631836 53.50634766 C70.25908744 58.97230618 70.27688987 64.4381332 70.28463173 69.90418243 C70.29014387 71.9820182 70.30090715 74.05984737 70.31719017 76.13762665 C70.55149721 107.29579748 70.55149721 107.29579748 60.25 117.78125 C50.34191427 125.93144955 38.23692019 125.98222771 26 125 C17.51823115 123.71812058 11.11646328 119.79029318 5.6875 113.1875 C0.83681183 104.02508902 -0.15662298 94.81118698 -0.11352539 84.57641602 C-0.11367142 83.6585582 -0.11381744 82.74070038 -0.1139679 81.79502869 C-0.11327493 78.78129661 -0.10551151 75.76762744 -0.09765625 72.75390625 C-0.09578988 70.65640802 -0.09436701 68.55890935 -0.09336853 66.46141052 C-0.0895606 60.95576767 -0.07974509 55.45015142 -0.06866455 49.94451904 C-0.0584133 44.32043823 -0.05386296 38.6963531 -0.04882812 33.07226562 C-0.03812123 22.04816543 -0.02106559 11.02408493 0 0 Z " fill="#0D5640" transform="translate(645,1441)"/>
<path d="M0 0 C6.37882224 4.65088811 9.37166709 12.2234066 10.90625 19.69921875 C11.22533457 22.42810619 11.16796875 25.19002086 11.16796875 27.9375 C5.88796875 27.9375 0.60796875 27.9375 -4.83203125 27.9375 C-5.22390625 26.24625 -5.61578125 24.555 -6.01953125 22.8125 C-7.49689903 17.54683595 -8.59140995 14.45631342 -12.83203125 10.9375 C-17.66866165 9.00284784 -22.18824982 8.37088972 -27.20703125 9.9375 C-31.15414684 11.77151331 -32.98255672 13.94263502 -34.83203125 17.9375 C-36.58466232 24.40032708 -35.81052358 29.96883497 -32.83203125 35.9375 C-28.12681699 42.06853677 -20.65990876 45.44753113 -13.94140625 49.00390625 C-2.13118324 55.31578646 7.3130052 61.84643758 12.16796875 74.9375 C15.04439809 86.01912843 13.80548302 98.06663972 8.48046875 108.125 C2.15913005 115.81311463 -4.74524727 121.06793288 -14.90722656 122.16064453 C-26.0278979 122.93217436 -36.35672615 122.23247429 -45.64453125 115.4375 C-51.6305905 109.79762249 -55.57252704 100.88533644 -55.9296875 92.69921875 C-55.89713542 90.77864583 -55.86458333 88.85807292 -55.83203125 86.9375 C-52.5468365 85.84243508 -50.0953971 85.83789392 -46.64453125 85.875 C-45.55785156 85.88402344 -44.47117187 85.89304687 -43.3515625 85.90234375 C-42.10439453 85.91974609 -42.10439453 85.91974609 -40.83203125 85.9375 C-40.5896875 86.73414063 -40.34734375 87.53078125 -40.09765625 88.3515625 C-37.12661564 98.30515724 -37.12661564 98.30515724 -30.33203125 105.8125 C-24.06000129 107.82850963 -16.80044568 108.37928415 -10.76953125 105.3125 C-6.10257486 101.53921611 -4.81982909 97.92491129 -4.01953125 92.125 C-3.52226012 85.07856232 -4.47699267 78.39963725 -8.97265625 72.6875 C-14.91833157 67.09157029 -22.71748932 63.41870604 -30.01953125 59.9375 C-40.43341765 54.84075666 -47.64789899 48.51876729 -52.14453125 37.8125 C-54.07895143 26.90940444 -53.75683204 15.62155831 -47.58203125 6.125 C-36.3338695 -8.0603672 -14.87329648 -8.6258777 0 0 Z " fill="#0D5640" transform="translate(1556.83203125,1444.0625)"/>
<path d="M0 0 C19.47 0 38.94 0 59 0 C59 4.95 59 9.9 59 15 C44.81 15 30.62 15 16 15 C16 26.88 16 38.76 16 51 C29.53 51 43.06 51 57 51 C57 55.95 57 60.9 57 66 C43.47 66 29.94 66 16 66 C16 80.52 16 95.04 16 110 C30.85 110 45.7 110 61 110 C60 122 60 122 59 124 C39.53 124 20.06 124 0 124 C0 83.08 0 42.16 0 0 Z " fill="#0D5640" transform="translate(1215,1440)"/>
<path d="M0 0 C5.61 0 11.22 0 17 0 C21.93626056 19.98350894 26.74215911 39.991856 31.3125 60.0625 C31.51864929 60.96391724 31.72479858 61.86533447 31.93719482 62.79406738 C34.83702033 75.48981795 37.50543977 88.21848735 40 101 C40.16819244 100.24846146 40.33638489 99.49692291 40.50967407 98.72261047 C44.99778974 78.69467452 49.60576197 58.69696033 54.30908203 38.71850586 C55.21613519 34.86509596 56.11951748 31.01083446 57.02213097 27.15638256 C57.727284 24.14752622 58.43469793 21.13920494 59.1427803 18.13103676 C59.477696 16.70663505 59.81181069 15.28204475 60.14509201 13.85725975 C60.60395804 11.8967146 61.06629275 9.93698225 61.52880859 7.97729492 C61.92016495 6.31219124 61.92016495 6.31219124 62.31942749 4.6134491 C63 2 63 2 64 0 C69.61 0 75.22 0 81 0 C78.18669421 12.98274814 75.06259844 25.84421173 71.71875 38.69921875 C71.21813042 40.63289442 70.7177697 42.56663713 70.21765137 44.5004425 C68.91338124 49.5405635 67.60535783 54.57970294 66.29656982 59.61865234 C65.23510941 63.70801173 64.17636552 67.79807207 63.1177597 71.8881712 C61.83983545 76.82542348 60.56072025 81.7623669 59.28125 86.69921875 C58.92431313 88.0765899 58.92431313 88.0765899 58.56016541 89.48178673 C57.24568135 94.55185544 55.92742034 99.62091268 54.60317993 104.68844223 C54.20110309 106.22931554 53.80028468 107.77051777 53.40072632 109.31204605 C52.84784807 111.44432044 52.29071611 113.57543717 51.73242188 115.70629883 C51.42042847 116.90370193 51.10843506 118.10110504 50.7869873 119.33479309 C50 122 50 122 49 123 C47.58429877 123.08651611 46.164405 123.10704904 44.74609375 123.09765625 C43.89208984 123.09443359 43.03808594 123.09121094 42.15820312 123.08789062 C41.26037109 123.07951172 40.36253906 123.07113281 39.4375 123.0625 C38.53580078 123.05798828 37.63410156 123.05347656 36.70507812 123.04882812 C34.46998686 123.03700225 32.23502563 123.0205222 30 123 C29.3060572 120.2242288 28.61211622 117.44845715 27.91818237 114.67268372 C27.28875539 112.15500689 26.65929874 109.63733748 26.02981567 107.11967468 C24.43686688 100.74845484 22.84418123 94.37716964 21.25260544 88.00560665 C20.3326296 84.32270733 19.41245765 80.63985704 18.4921875 76.95703125 C18.30638878 76.21347193 18.12059006 75.46991261 17.92916107 74.70382118 C15.40302758 64.59583471 12.86771333 54.49020111 10.32370377 44.38669968 C9.18976508 39.88154456 8.0582506 35.37577982 6.92633057 30.87011719 C6.30922891 28.41683619 5.69086308 25.96387282 5.07122803 23.51123047 C4.21101286 20.10592405 3.35504248 16.69957702 2.5 13.29296875 C2.244534 12.28658859 1.98906799 11.28020844 1.7258606 10.24333191 C1.4966391 9.32667252 1.2674176 8.41001312 1.03125 7.46557617 C0.83080078 6.67044113 0.63035156 5.87530609 0.42382812 5.05607605 C0 3 0 3 0 0 Z " fill="#0D5640" transform="translate(1057,1441)"/>
<path d="M0 0 C5.94 0 11.88 0 18 0 C20.33031161 5.88550599 22.6597846 11.771343 24.98852539 17.6574707 C25.77866697 19.65430375 26.56902632 21.65105064 27.35961914 23.64770508 C31.62215067 34.41322588 35.88058899 45.17868831 40 56 C44.26588745 45.99745284 48.21456874 35.87518301 52.15820312 25.74243164 C53.26007088 22.91162693 54.36425502 20.08173367 55.46875 17.25195312 C56.17200938 15.44796905 56.87513919 13.64393445 57.578125 11.83984375 C58.07182587 10.57429909 58.07182587 10.57429909 58.57550049 9.28318787 C58.87961853 8.50129593 59.18373657 7.71940399 59.49707031 6.91381836 C59.76400696 6.22831406 60.0309436 5.54280975 60.30596924 4.83653259 C60.90982589 3.23861721 61.45981703 1.62054891 62 0 C67.61 0 73.22 0 79 0 C78.21504995 4.70970032 77.4917356 7.60760299 75.62109375 11.8125 C75.11932617 12.94913086 74.61755859 14.08576172 74.10058594 15.25683594 C73.83016479 15.86297729 73.55974365 16.46911865 73.28112793 17.09362793 C72.41263127 19.05619663 71.56591386 21.02702509 70.72363281 23.00097656 C67.89777069 29.59242846 64.99352293 36.09858257 61.72608948 42.48464966 C48.00284624 69.45769374 46.78141216 94.03081415 48 124 C42.39 124 36.78 124 31 124 C31.03254883 122.66751221 31.06509766 121.33502441 31.09863281 119.9621582 C31.61577557 94.63450675 31.90029409 72.95202643 20.01416016 50.08007812 C16.03635207 42.22456078 12.84651308 33.97657448 9.4838562 25.84515381 C8.26697354 22.91585891 7.0328676 19.99442869 5.79321289 17.07470703 C5.03392137 15.27640753 4.2747211 13.4780695 3.515625 11.6796875 C3.15993942 10.84677185 2.80425385 10.0138562 2.43778992 9.15570068 C2.11575089 8.38743958 1.79371185 7.61917847 1.46191406 6.82763672 C1.17834045 6.15787811 0.89476685 5.48811951 0.6026001 4.79806519 C0 3 0 3 0 0 Z " fill="#0D5640" transform="translate(1871,1440)"/>
<path d="M0 0 C23.1 0 46.2 0 70 0 C70 4.62 70 9.24 70 14 C61.09 14 52.18 14 43 14 C43 49.97 43 85.94 43 123 C37.72 123 32.44 123 27 123 C27 87.03 27 51.06 27 14 C18.09 14 9.18 14 0 14 C0 9.38 0 4.76 0 0 Z " fill="#0D5640" transform="translate(1740,1441)"/>
<path d="M0 0 C5.28 0 10.56 0 16 0 C16 40.59 16 81.18 16 123 C10.72 123 5.44 123 0 123 C0 82.41 0 41.82 0 0 Z " fill="#0D5640" transform="translate(1649,1441)"/>
<path d="M0 0 C5.28 0 10.56 0 16 0 C16 40.59 16 81.18 16 123 C10.72 123 5.44 123 0 123 C0 82.41 0 41.82 0 0 Z " fill="#0D5640" transform="translate(961,1441)"/>
<path d="M0 0 C4.62 0 9.24 0 14 0 C15.00648976 3.41487596 16.00541041 6.83165832 17 10.25 C17.28617188 11.21808594 17.57234375 12.18617188 17.8671875 13.18359375 C18.13789063 14.11816406 18.40859375 15.05273438 18.6875 16.015625 C18.93886719 16.87446289 19.19023437 17.73330078 19.44921875 18.61816406 C20 21 20 21 20 25 C20.66 25 21.32 25 22 25 C22.17015625 23.54207031 22.17015625 23.54207031 22.34375 22.0546875 C22.97875996 17.61632564 24.20705303 13.41019567 25.5 9.125 C25.72558594 8.35414063 25.95117188 7.58328125 26.18359375 6.7890625 C27.86624765 1.13375235 27.86624765 1.13375235 29 0 C33.29 0 37.58 0 42 0 C42 14.19 42 28.38 42 43 C39.03 43 36.06 43 33 43 C32.505 30.625 32.505 30.625 32 18 C30.06797005 25.4786129 30.06797005 25.4786129 28.14086914 32.95849609 C27.77916626 34.35189209 27.77916626 34.35189209 27.41015625 35.7734375 C27.16402588 36.72653809 26.91789551 37.67963867 26.66430664 38.66162109 C26 41 26 41 25 43 C22.03 43 19.06 43 16 43 C14.02 35.08 12.04 27.16 10 19 C9.67 26.92 9.34 34.84 9 43 C6.03 43 3.06 43 0 43 C0 28.81 0 14.62 0 0 Z " fill="#0D5640" transform="translate(2036,442)"/>
<path d="M0 0 C10.56 0 21.12 0 32 0 C32 2.64 32 5.28 32 8 C28.37 8 24.74 8 21 8 C21 19.55 21 31.1 21 43 C17.7 43 14.4 43 11 43 C11 31.45 11 19.9 11 8 C7.37 8 3.74 8 0 8 C0 5.36 0 2.72 0 0 Z " fill="#0D5640" transform="translate(2001,442)"/>
</svg>
