<svg role="presentation" class="a-logo__svg w-full" width="189" height="44" viewBox="0 0 189 44" fill="none" xmlns="http://www.w3.org/2000/svg">
  <path fill="#FFFFFF" d="M91.7832 19.2755V33.2701H86.3495V20.2657C86.3495 16.6351 84.5492 14.4897 81.2104 14.4897C77.9371 14.4897 75.8095 16.8661 75.8095 20.9258V33.2701H70.3431V9.93482H75.7768V13.0704C77.3152 10.694 79.9993 9.2747 82.8471 9.37372C88.5099 9.37372 91.7832 13.1364 91.7832 19.2755ZM58.5265 33.2701H63.9602V9.93482H58.5265V33.2701ZM172.797 0V33.2701H178.231V0H172.797ZM160.981 33.2701H166.414V0H160.981V33.2701ZM18.6905 9.93482H24.0914V31.8509C24.0914 38.8481 19.4761 43.9971 11.6202 43.9971C8.51056 44.0631 5.49913 43.0069 3.10963 41.0265L6.12106 36.9998C7.62678 38.4191 9.59075 39.2112 11.6529 39.2442C15.7773 39.2442 18.6578 36.5707 18.6578 31.9169V29.3094C16.8902 31.7188 14.0752 33.1051 11.0965 33.0391C4.87721 33.0391 0 27.9561 0 21.2889C0 14.6547 4.84448 9.37372 11.0965 9.37372C14.0424 9.37372 16.8247 10.694 18.6578 13.0374V9.93482H18.6905ZM18.9196 21.3219C18.7887 17.5922 15.7118 14.6877 12.013 14.7867C8.3469 14.9187 5.43367 18.0543 5.5646 21.751C5.69553 25.4807 8.77243 28.3852 12.4712 28.2862C14.2061 28.2202 15.8427 27.4941 17.0539 26.2398C18.2977 24.9196 18.9851 23.1373 18.9196 21.3219ZM156.136 21.553C156.136 21.982 156.136 22.6752 156.103 23.2693H138.46C138.82 26.8009 141.897 29.4414 145.432 29.2104C147.429 29.2104 149.393 28.5172 150.932 27.197L153.648 30.9597C151.259 32.841 148.313 33.8642 145.302 33.8642C137.577 33.8642 132.928 28.7483 132.928 21.652C132.667 15.1168 137.707 9.60476 144.156 9.34072C144.32 9.34072 144.516 9.34072 144.68 9.34072C151.717 9.34072 156.136 14.6547 156.136 21.553ZM138.46 19.3416H150.572C150.342 16.206 147.658 13.8295 144.549 14.0276C141.439 13.8625 138.755 16.206 138.46 19.3416ZM120.326 25.5467L114.991 9.96783H110.866L105.531 25.5467L100.326 9.96783H94.5982L103.011 33.3031H107.495L112.863 17.7903L118.166 33.3031H122.716L131.063 9.96783H125.531L120.326 25.5467Z"/>
  <path d="M30.2778 10.0669H52.5362V33.1051H47.2008V15.3809H30.2778V10.0669ZM30.2778 29.1444V33.1051H34.1731L42.1272 24.6886V20.7279H38.2319L30.2778 29.1444Z" fill="#00EEAE"/>
  <path fill="#FFFFFF" d="M185.727 26.6689C183.927 26.6689 182.454 28.1542 182.454 29.9696C182.454 31.7849 183.927 33.2702 185.727 33.2702C187.527 33.2702 189 31.7849 189 29.9696C189 28.1542 187.527 26.6689 185.727 26.6689ZM185.727 32.643C184.254 32.643 183.076 31.4548 183.076 29.9696C183.076 28.4843 184.254 27.2961 185.727 27.2961C187.2 27.2961 188.378 28.4843 188.378 29.9696C188.378 31.4548 187.2 32.643 185.727 32.643ZM186.938 29.3424C186.938 28.7813 186.48 28.3192 185.923 28.3192H184.81C184.647 28.3192 184.516 28.4513 184.516 28.6163V31.2898C184.516 31.4548 184.647 31.5868 184.81 31.5868C184.974 31.5868 185.105 31.4548 185.105 31.2898V30.3656H185.858L186.349 31.4218C186.414 31.5868 186.611 31.6529 186.742 31.5868C186.905 31.5208 186.971 31.3228 186.905 31.1908L186.447 30.2336C186.774 30.0356 186.938 29.7055 186.938 29.3424ZM185.923 29.7715H185.105V28.9464H185.923C186.152 28.9464 186.316 29.1444 186.316 29.3424C186.349 29.5735 186.152 29.7715 185.923 29.7715Z"/>
</svg>
