<svg xmlns="http://www.w3.org/2000/svg" viewBox="0 0 934 277"><g fill="none" stroke="#8c6871" stroke-width="2"><path d="M397.25 119.04q-.59.74.19 1.27 5.66 14.88 11.39 29.84M370.96 159.75l-11.21-28.04M269.48 177.09q-7.79 17.15-14.53 34.89-1.69 4.44-2.91 9.02M209.18 251.64q7.37-5.38 14.61-10.87c6.22-4.72 10.38-11.5 14.08-18.17q9.8-17.67 17.38-36.39M199.94 226.01q-15.45 11.51-32.46 20.57M73.5 264.21l1-.25" vector-effect="non-scaling-stroke"/></g><path fill="#6e2639" d="M348.56 0h2.56q23.32 59.17 45.62 118.75.06.17.22.24.12.05.29.05-.59.74.19 1.27 5.66 14.88 11.39 29.84c7.47 19.89 14.75 40.18 23.28 59.66 8.58 19.63 16.79 35.4 40.74 37.67q.65.06.65.71v2.94q0 .62-.63.62H371.5q-.75 0-.75-.75v-2.29q0-.63.63-.69c9.19-.86 26.06-5.2 23.68-18.26q-1.13-6.26-2.82-11.51-9.12-28.45-21.28-58.5l-11.21-28.04-34.52-86.64a.24.24 0 0 0-.44-.01l-55.71 131.53q-.1.24.1.4.11.09.3.1-7.79 17.15-14.53 34.89-1.69 4.44-2.91 9.02c-8.33 22.09 10.75 24.74 26.29 26.93q.67.09.67.77v2.34q0 .68-.68.68l-69.14-.08q7.37-5.38 14.61-10.87c6.22-4.72 10.38-11.5 14.08-18.17q9.8-17.67 17.38-36.39 33.39-74.58 65.56-149.69.19-.46-.02-.91l-3.01-6.38q-.24-.52.27-.77Q337.56 18.83 348.56 0ZM199.94 226.01q-15.45 11.51-32.46 20.57-4.35.8-8.68 1.81c-18.29 4.26-38.25 4.27-56.8 1.59-46.07-6.65-70.63-41.35-70.32-86.49q.43-60.74.27-121.49c-.02-7.66-.51-18.11-3.86-24.3C23.12 8.5 11.25 5.13 1.38 3.99q-.63-.07-.63-.7V.88q0-.63.62-.63h96.25q.63 0 .63.62v2.29q0 .56-.55.68C85.82 6.26 76.03 8.58 70.79 20.3c-2.85 6.39-2.65 15.23-2.69 22.63q-.24 50.79-.01 101.57.08 17.88.2 19.99c2.97 55.43 39.72 87.1 95.86 72.78 43.65-11.12 51.31-54.19 51.6-92.59q.36-46.76.23-74.68c-.04-9.17-.19-21-1.44-31.11-2.74-22.02-14.77-32.07-36.47-34.8q-.57-.07-.57-.65V.88q0-.63.62-.63h80q.63 0 .63.62v2.54q0 .65-.65.72c-19.59 1.91-29.12 12.75-31.62 31.5q-2.07 15.64-2.34 31.44-.84 50.1-3.02 100.17c-.95 21.89-7.57 42.03-21.18 58.77ZM582.5 86.84v24.07a.59.59 0 0 1-.59.59h-64.32a.59.59 0 0 1-.59-.59V.84a.59.59 0 0 1 .59-.59h28.82a.59.59 0 0 1 .59.59v84.82a.59.59 0 0 0 .59.59h34.32a.59.59 0 0 1 .59.59Z"/><rect width="30.26" height="111.26" x="590.5" y=".25" fill="#6e2639" rx=".59"/><path fill="#6e2639" d="M678.75 25.82v85.11a.57.57 0 0 1-.57.57h-29.11a.57.57 0 0 1-.57-.57V25.82a.57.57 0 0 0-.57-.57h-19.11a.57.57 0 0 1-.57-.57V.82a.57.57 0 0 1 .57-.57h69.86a.57.57 0 0 1 .57.57v23.86a.57.57 0 0 1-.57.57h-19.36a.57.57 0 0 0-.57.57ZM757 25.75V111a.5.5 0 0 1-.5.5h-29a.5.5 0 0 1-.5-.5V25.75a.5.5 0 0 0-.5-.5h-19.25a.5.5 0 0 1-.5-.5v-24a.5.5 0 0 1 .5-.5H777a.5.5 0 0 1 .5.5v24a.5.5 0 0 1-.5.5h-19.5a.5.5 0 0 0-.5.5ZM815.27 86.25h34.46a.52.52 0 0 1 .52.52v24.21a.52.52 0 0 1-.52.52h-64.46a.52.52 0 0 1-.52-.52V.77a.52.52 0 0 1 .52-.52h28.96a.52.52 0 0 1 .52.52v84.96a.52.52 0 0 0 .52.52ZM889.6 42.25h38.55a.6.6 0 0 1 .6.6v23.3a.6.6 0 0 1-.6.6H889.6a.6.6 0 0 0-.6.6v18.8a.6.6 0 0 0 .6.6h43.3a.6.6 0 0 1 .6.6v23.55a.6.6 0 0 1-.6.6h-73.55a.6.6 0 0 1-.6-.6V.85a.6.6 0 0 1 .6-.6h71.3a.6.6 0 0 1 .6.6V23.9a.6.6 0 0 1-.6.6H889.6a.6.6 0 0 0-.6.6v16.55a.6.6 0 0 0 .6.6Z"/><path fill="#a9a9a9" d="M408.83 150.15q-5.73-14.96-11.39-29.84-.78-.53-.19-1.27c19.84-5.6 48.15-11.42 67.58-2.7 30.1 13.52 24.03 49.12 17.88 74.32a.25.25 0 0 1-.49-.03c-3.57-40.75-40.75-46.52-73.39-40.48ZM359.75 131.71l11.21 28.04c-42.21 14.7-81.86 36.44-118.92 61.25q1.22-4.58 2.91-9.02 6.74-17.74 14.53-34.89 42.58-26.25 88.87-44.93.68-.27 1.4-.45Z"/><path fill="#6e2639" d="M613.53 205.75c-6.54-42.53 25.22-77.3 69.03-67.06 31.53 7.37 43.6 38.88 38.29 68.31-4.91 27.27-24.05 43.92-52.26 44.84-29.74.98-50.63-17.3-55.06-46.09Zm39.66-38.56c-11.96 12.97-13.32 51.13 6.38 59.24 13.08 5.39 23.55-2.42 27.82-14.52 4.68-13.27 4.62-36.49-7.5-46.51-8.14-6.72-19.43-6.1-26.7 1.79ZM736.75 173.5c11.86-34.19 52.39-42.11 82.96-32.99q1.42.42 2.63 1.25.51.34.36.94l-5.53 22.45q-.13.52-.63.32c-20.63-8.2-46.88-4.45-51.4 21.45-1.14 6.53-.81 13.73 1.38 20 7.56 21.75 30.73 22.85 49.81 16.86q.6-.19.7.43l3.83 21.92q.26 1.47-1.18 1.88c-19.09 5.44-42.17 5.97-59.86-3.48-25.67-13.72-32.04-45.18-23.07-71.03ZM546.75 209.04v40.46a.5.5 0 0 1-.5.5H517.5q-.5 0-.5-.5V140.73a.61.61 0 0 1 .54-.61q21.33-2.72 42.89-1.97c20.29.71 41.27 7.62 41.34 32.14.04 12.28-7.39 22.64-18.77 27.32a.43.42-43.2 0 0-.03.78c8.13 3.93 11.8 12.07 14.04 20.3q4.2 15.42 8.64 30.76.15.55-.41.55H575.7q-.61 0-.81-.58-4.52-13.04-7.8-26.44c-3.08-12.55-6.99-15.08-19.92-14.38q-.42.02-.42.44Zm0-48.71v26.14a.27.27 0 0 0 .27.27h10.03a14.72 12.38 0 0 0 14.72-12.38v-1.92a14.72 12.38 0 0 0-14.72-12.38h-10.03a.27.27 0 0 0-.27.27ZM866.48 185.02q0 .82.43.12l27.93-46.02q.22-.37.66-.37h36a.3.3 0 0 1 .24.48l-34.69 46.51q-.34.46-.05.96l36.02 62.77a.36.36 0 0 1-.31.53h-33.68q-.53 0-.77-.47l-22.66-43.56q-.38-.73-.89-.08l-7.89 10.12q-.32.42-.32.94v32.55a.5.5 0 0 1-.5.5h-28.75q-.5 0-.5-.5V139.25a.5.5 0 0 1 .5-.5h28.5a.76.75 0 0 1 .76.75l-.03 45.52Z"/><path fill="#a9a9a9" d="M255.25 186.21q-7.58 18.72-17.38 36.39c-3.7 6.67-7.86 13.45-14.08 18.17q-7.24 5.49-14.61 10.87-1.21.42-2.37 1.17-33.04 21.32-72.37 24.19h-12.75q-25.46-1.45-48.19-12.79l1-.25c29.51 9.83 65.95-2.22 92.98-17.38q17.01-9.06 32.46-20.57 2.88-1.8 5.48-3.85 24.15-19.04 49.83-35.95Z"/><path fill="#6e2639" d="m74.5 263.96-1 .25q-1.33-.4-2.39-1.26-1.15-.93.21-.35l3.18 1.36Z"/></svg>